<svg width="512" height="512" viewBox="0 0 512 512" fill="none" xmlns="http://www.w3.org/2000/svg">
<path fill-rule="evenodd" clip-rule="evenodd" d="M425.619 86.2799C382.172 42.9699 322.258 16.0039 255.965 16.0039C189.668 16.0039 129.753 42.9699 86.315 86.2799C42.863 129.725 16.029 189.772 16.029 256.069C16.029 322.225 42.863 382.281 86.315 425.719C129.753 469.03 189.668 495.995 255.965 495.995C322.258 495.995 382.172 469.029 425.619 425.719C469.062 382.281 495.896 322.225 495.896 256.069C495.896 189.772 469.063 129.726 425.619 86.2799ZM412.332 412.438C372.339 452.426 317.081 477.268 255.965 477.268C194.844 477.268 139.586 452.426 99.593 412.438C59.476 372.449 34.762 317.049 34.762 256.07C34.762 194.957 59.476 139.556 99.593 99.5679C139.586 59.5749 194.844 34.8679 255.965 34.8679C317.081 34.8679 372.339 59.5749 412.332 99.5679C452.453 139.556 477.163 194.957 477.163 256.07C477.163 317.049 452.453 372.448 412.332 412.438Z" fill="#FF52BF"/>
<path d="M307.349 154.392C320.859 154.433 333.805 159.818 343.359 169.371C352.912 178.925 358.297 191.871 358.338 205.381V307.349C358.297 320.859 352.912 333.805 343.359 343.359C333.805 352.912 320.859 358.297 307.349 358.338H205.381C191.871 358.297 178.925 352.912 169.371 343.359C159.818 333.805 154.433 320.859 154.392 307.349V205.381C154.433 191.871 159.818 178.925 169.371 169.371C178.925 159.818 191.871 154.433 205.381 154.392H307.349ZM307.349 134H205.381C166.121 134 134 166.121 134 205.381V307.349C134 346.609 166.121 378.73 205.381 378.73H307.349C346.609 378.73 378.73 346.609 378.73 307.349V205.381C378.73 166.121 346.609 134 307.349 134Z" fill="#FF52BF"/>
<path d="M322.644 205.381C319.619 205.381 316.662 204.484 314.146 202.804C311.631 201.123 309.671 198.734 308.513 195.939C307.355 193.144 307.052 190.069 307.642 187.102C308.233 184.135 309.689 181.409 311.829 179.27C313.968 177.131 316.693 175.674 319.66 175.084C322.627 174.494 325.703 174.797 328.498 175.954C331.292 177.112 333.681 179.073 335.362 181.588C337.043 184.103 337.94 187.06 337.94 190.086C337.944 192.096 337.551 194.086 336.784 195.944C336.017 197.802 334.891 199.49 333.469 200.911C332.048 202.332 330.36 203.459 328.503 204.226C326.645 204.993 324.654 205.386 322.644 205.381ZM256.365 215.575C264.433 215.575 272.319 217.967 279.027 222.449C285.735 226.931 290.963 233.302 294.05 240.755C297.137 248.209 297.945 256.41 296.371 264.323C294.797 272.235 290.913 279.503 285.208 285.208C279.503 290.912 272.235 294.797 264.323 296.371C256.41 297.945 248.209 297.137 240.755 294.05C233.302 290.963 226.931 285.735 222.449 279.027C217.967 272.319 215.575 264.432 215.575 256.365C215.586 245.55 219.888 235.182 227.535 227.535C235.182 219.888 245.55 215.586 256.365 215.575ZM256.365 195.182C244.264 195.182 232.435 198.771 222.374 205.493C212.312 212.216 204.47 221.772 199.84 232.951C195.209 244.131 193.997 256.433 196.358 268.301C198.719 280.169 204.546 291.071 213.102 299.627C221.659 308.184 232.561 314.011 244.429 316.372C256.297 318.733 268.599 317.521 279.779 312.89C290.958 308.259 300.514 300.417 307.236 290.356C313.959 280.295 317.547 268.466 317.547 256.365C317.547 240.138 311.101 224.576 299.628 213.102C288.154 201.628 272.592 195.182 256.365 195.182Z" fill="#FF52BF"/>
</svg>
