<svg width="512" height="512" viewBox="0 0 512 512" fill="none" xmlns="http://www.w3.org/2000/svg">
<path fill-rule="evenodd" clip-rule="evenodd" d="M425.619 86.2799C382.172 42.9699 322.258 16.0039 255.965 16.0039C189.668 16.0039 129.753 42.9699 86.3151 86.2799C42.8631 129.725 16.0291 189.772 16.0291 256.069C16.0291 322.225 42.8631 382.281 86.3151 425.719C129.753 469.03 189.668 495.995 255.965 495.995C322.258 495.995 382.172 469.029 425.619 425.719C469.062 382.281 495.896 322.225 495.896 256.069C495.896 189.772 469.063 129.726 425.619 86.2799ZM412.332 412.438C372.339 452.426 317.081 477.268 255.965 477.268C194.844 477.268 139.586 452.426 99.5931 412.438C59.4761 372.449 34.7621 317.049 34.7621 256.07C34.7621 194.957 59.4761 139.556 99.5931 99.5679C139.586 59.5749 194.844 34.8679 255.965 34.8679C317.081 34.8679 372.339 59.5749 412.332 99.5679C452.453 139.556 477.163 194.957 477.163 256.07C477.163 317.049 452.453 372.448 412.332 412.438Z" fill="white"/>
<path fill-rule="evenodd" clip-rule="evenodd" d="M371.813 161.608C362.113 167.319 351.22 171.438 339.798 173.696C330.75 164.003 317.61 158.021 302.993 158.021C275.359 158.021 252.769 180.209 252.769 207.44C252.769 211.427 253.441 215.149 254.236 218.738C212.388 216.743 175.319 197.08 150.605 167.054C146.355 174.494 143.701 182.866 143.701 191.899C143.701 209.17 153.581 224.314 166.864 233.085C158.631 232.952 149.999 230.69 144.999 226.972C144.999 227.239 144.999 227.371 144.999 227.636C144.999 234.013 145.349 239.861 147.601 245.438C153.72 260.987 167.247 272.674 184.12 275.996C179.729 277.193 175.267 277.851 170.62 277.851C167.431 277.851 164.136 277.454 161.074 276.79C167.59 296.456 186.001 310.803 207.928 311.333C190.652 324.619 169.106 332.455 145.589 332.455C141.463 332.455 137.604 332.19 133.487 331.793C155.802 345.742 182.235 353.981 210.536 353.981C289.054 353.981 337.301 299.64 349.916 243.178C352.183 233.085 352.998 223.12 352.998 213.289C352.998 211.162 352.998 208.907 352.998 206.911C362.998 199.87 371.572 191.099 378.217 181.269C369.311 185.125 359.734 187.782 349.503 189.107C360 182.866 368.085 173.298 371.813 161.608Z" fill="white"/>
</svg>
