<svg width="512" height="512" viewBox="0 0 512 512" fill="none" xmlns="http://www.w3.org/2000/svg">
<path fill-rule="evenodd" clip-rule="evenodd" d="M425.614 86.3488C382.172 42.9008 322.253 16.0698 255.96 16.0698C189.668 16.0698 129.751 42.9008 86.3081 86.3478C42.8651 129.793 16.0291 189.707 16.0291 256C16.0291 322.29 42.8651 382.209 86.3081 425.652C129.751 469.099 189.667 495.928 255.96 495.928C322.253 495.928 382.172 469.099 425.614 425.652C469.057 382.209 495.896 322.29 495.896 256C495.896 189.708 469.058 129.794 425.614 86.3488ZM412.465 412.499C372.344 452.492 317.071 477.201 255.96 477.201C194.851 477.201 139.581 452.492 99.5931 412.499C59.6021 372.382 34.7601 317.114 34.7601 256.001C34.7601 194.89 59.6021 139.622 99.5931 99.6338C139.581 59.6458 194.851 34.7988 255.96 34.7988C317.071 34.7988 372.344 59.6458 412.465 99.6338C452.453 139.622 477.163 194.89 477.163 256.001C477.163 317.114 452.453 372.382 412.465 412.499Z" fill="#FF52BF"/>
<path fill-rule="evenodd" clip-rule="evenodd" d="M276 187.316C276 177.883 280.537 174 285.061 174C289.443 174 314 174 314 174V131H274.693C232.58 131 222 164.729 222 184.925V204H198V236.603V252H222C222 310 222 378 222 378H276C276 378 276 310 276 252H308.705L310.3 233.248L313.225 204H276V187.316Z" fill="#FF52BF"/>
</svg>
