<svg width="200" height="33" viewBox="0 0 200 33" fill="none" xmlns="http://www.w3.org/2000/svg">
<path d="M23.3058 0.73255C16.8683 0.729216 10.1517 2.17922 3.37249 4.06005C2.51165 4.23338 1.67165 4.79672 1.22749 5.49338C0.819155 6.15005 0.670822 6.80922 0.543322 7.50005C-0.115012 11.1901 -0.0350118 14.8134 0.101655 18.8284C0.131655 19.7475 0.268322 20.8367 0.697488 21.4992C1.14582 22.1684 1.91416 22.5934 2.83166 22.7325C4.00383 22.9045 5.17967 23.0504 6.35832 23.1701L6.09832 30.4184C6.05832 30.995 6.33999 31.4742 6.68999 31.75C7.00332 31.9884 7.35249 32.0942 7.71082 32.1209C8.42749 32.175 9.26832 31.8684 9.68582 31.0734C11.515 27.5534 12.6625 25.9992 14.95 23.6609C20.915 23.8076 26.1225 23.4759 32.0183 23.0401C34.1025 22.9859 35.5333 21.2817 35.9117 19.9209C37.0425 16.3942 37.2183 12.0409 37.3383 7.64005C37.3892 5.89588 36.7842 4.18338 35.7133 3.27838C34.695 2.45255 33.4617 2.15338 32.3317 1.84672C29.1925 1.13588 26.0525 0.754216 23.3058 0.73255ZM31.8808 3.49088C33.0125 3.79838 34.01 4.09422 34.6392 4.60505C35.6892 5.72088 35.6542 6.46338 35.6392 7.66755C35.5208 11.9359 35.3158 16.0784 34.3525 19.2176C33.9375 20.3884 33.2142 21.2217 31.8475 21.3476C25.8408 21.7917 20.6292 22.135 14.5917 21.9634C14.4741 21.9596 14.357 21.98 14.2477 22.0233C14.1383 22.0666 14.039 22.1319 13.9558 22.2151C11.4192 24.7767 10.1217 26.5567 8.18832 30.2784C8.14332 30.3634 8.04582 30.415 7.92582 30.4242C7.84499 30.42 7.81249 30.3575 7.80749 30.3009L8.06916 22.4409C8.08499 22.0167 7.73499 21.6117 7.31332 21.5659C5.90342 21.4312 4.49736 21.2589 3.09666 21.0492C2.49166 20.9567 2.26832 20.7909 2.10249 20.5442C1.81415 19.8567 1.82082 19.4317 1.79832 18.7709C1.66332 14.7917 1.59665 11.3142 2.20749 7.85422C2.26415 7.34255 2.45582 6.81922 2.65915 6.38172C2.99582 5.85505 3.51166 5.77755 4.02916 5.63422C10.6592 3.80338 17.1458 2.43422 23.2525 2.43005C26.2458 2.53838 29.3892 2.83838 31.8808 3.49088ZM8.98166 10.2326C8.06832 11.3267 8.15915 12.8126 8.86499 13.8076C9.23332 14.3284 9.80832 14.7476 10.5083 14.8426C11.4175 14.9176 11.9942 14.5492 12.6167 14.1259C13.7442 13.1459 13.8583 11.4359 13.0008 10.2009C12.5642 9.57172 11.8658 9.19422 11.1525 9.16755C10.1758 9.17755 9.51249 9.61338 8.98166 10.2317V10.2326ZM18.8617 9.33922C17.9517 9.36838 17.2158 9.99838 16.7667 10.6784C16.2525 11.4559 15.9525 12.4292 16.3683 13.3834C17.1683 15.2192 19.9325 15.1967 21.035 13.3309C21.5433 12.4709 21.4133 11.4934 21.035 10.7842C20.6583 10.0759 20.0883 9.49838 19.2592 9.36588C19.1278 9.34429 18.9947 9.33536 18.8617 9.33922ZM26.8825 9.51172C26.5992 9.50505 26.3075 9.53172 26.0342 9.60422C24.9408 9.89588 24.01 11.0242 24.1508 12.4684C24.2225 13.1951 24.5567 13.9034 25.1592 14.3917C25.7617 14.8792 26.6367 15.0975 27.5592 14.9084C28.6192 14.6917 29.2758 13.8376 29.495 13.0126C29.7142 12.1876 29.6592 11.3467 29.15 10.6651C28.8851 10.3128 28.5431 10.0257 28.1503 9.82582C27.7574 9.62593 27.3232 9.51849 26.8825 9.51172ZM11.0783 10.8642C11.2825 10.8659 11.4433 10.9309 11.6092 11.1692C11.98 11.7042 11.8767 12.515 11.5025 12.8401C11.13 13.1651 10.8975 13.1934 10.7342 13.1717C10.5708 13.1492 10.405 13.0367 10.2567 12.8267C9.97332 12.4267 9.88999 11.7801 10.2625 11.3184C10.4608 11.055 10.825 10.8909 11.0792 10.8642H11.0783ZM18.9808 11.0501C19.0125 11.0551 19.3675 11.2609 19.5375 11.5801C19.7075 11.8992 19.7392 12.1959 19.5775 12.4684C19.0967 13.2817 18.0742 13.0617 17.9192 12.7076C17.8608 12.5725 17.905 12.0301 18.1858 11.6076C18.465 11.1834 18.8167 11.0242 18.9808 11.0492V11.0501ZM27.7842 11.6734C27.8358 11.7426 27.9617 12.2067 27.8642 12.5751C27.7658 12.9434 27.6058 13.1709 27.2142 13.2509C26.7125 13.3542 26.4308 13.2509 26.22 13.0784C26.0083 12.9076 25.8658 12.6184 25.835 12.3092C25.76 11.5426 26.035 11.3651 26.4717 11.2484C26.98 11.1234 27.555 11.3417 27.7842 11.6734Z" fill="white"/>
<path d="M48.0083 4.16339C48.0216 3.94672 48.1008 3.75172 48.2475 3.57922C48.3189 3.49465 48.4086 3.42744 48.5098 3.38268C48.611 3.33793 48.7211 3.31679 48.8316 3.32089H54.52C54.7117 3.32089 54.9092 3.40089 55.1133 3.56005C55.209 3.62874 55.2868 3.71938 55.3401 3.82437C55.3935 3.92936 55.4209 4.04562 55.42 4.16339V13.2409H64.9375V4.16339C64.9375 3.93339 65.0175 3.73589 65.1766 3.57005C65.3366 3.40339 65.5433 3.32005 65.7991 3.32005H71.4108C71.6658 3.32005 71.8892 3.38422 72.0808 3.51172C72.2725 3.64005 72.3683 3.84422 72.3683 4.12505V30.9167C72.3683 31.1976 72.285 31.4084 72.1183 31.5484C71.9533 31.6892 71.7358 31.7592 71.4683 31.7592H65.7991C65.5441 31.7592 65.3366 31.6892 65.1766 31.5484C65.0175 31.4084 64.9375 31.1984 64.9375 30.9167V20.0392H55.42V30.9167C55.42 31.1851 55.3333 31.3917 55.1616 31.5392C54.9891 31.6859 54.7558 31.7592 54.4616 31.7592H48.8316C48.2958 31.7592 48.0216 31.5101 48.0083 31.0126V4.16339ZM100.404 31.4342C100.238 31.5742 100.062 31.6634 99.8775 31.7017C99.7046 31.739 99.5285 31.7585 99.3517 31.7601H96.46C96.23 31.7601 96.0317 31.7184 95.8658 31.6351C95.6992 31.5517 95.5591 31.4401 95.4441 31.3001C95.3265 31.1546 95.23 30.9933 95.1575 30.8209C95.0803 30.6407 95.0163 30.4553 94.9658 30.2659L94.3725 27.8142C94.1808 28.2101 93.9033 28.6601 93.5392 29.1642C93.1452 29.6993 92.6778 30.1762 92.1508 30.5809C91.5892 31.0226 90.9183 31.3926 90.14 31.6926C89.3608 31.9926 88.4675 32.1426 87.4583 32.1426C86.0033 32.1426 84.6817 31.8617 83.4942 31.3001C82.3315 30.7568 81.2972 29.9735 80.4592 29.0017C79.6233 28.0317 78.975 26.8984 78.5158 25.6017C78.0558 24.3067 77.8258 22.9242 77.8258 21.4567V8.91255C77.8258 8.42755 77.9317 8.06088 78.1425 7.81172C78.3525 7.56255 78.6875 7.43838 79.1475 7.43838H83.5708C84.1208 7.43838 84.4967 7.53005 84.7008 7.71588C84.905 7.90088 85.0075 8.26172 85.0075 8.79755V21.2642C85.0075 21.8142 85.1325 22.3342 85.3808 22.8259C85.63 23.3176 85.9583 23.7509 86.3675 24.1276C86.7758 24.5042 87.2383 24.8017 87.7558 25.0184C88.2725 25.2351 88.7992 25.3434 89.3358 25.3434C89.795 25.3434 90.2708 25.2351 90.7625 25.0184C91.2574 24.7989 91.7158 24.505 92.1217 24.1467C92.5366 23.7834 92.8783 23.3551 93.1467 22.8634C93.415 22.3717 93.5483 21.8517 93.5483 21.3034V8.85505C93.5483 8.63838 93.59 8.42172 93.6733 8.20422C93.7566 7.98755 93.8808 7.82088 94.0467 7.70588C94.2125 7.60422 94.3691 7.53422 94.5158 7.49588C94.6625 7.45755 94.8325 7.43755 95.0233 7.43755H99.3517C99.9 7.43755 100.296 7.57255 100.538 7.84005C100.781 8.10839 100.902 8.46589 100.902 8.91255V30.3426C100.902 30.5842 100.848 30.8084 100.74 31.0126C100.632 31.2167 100.482 31.3767 100.29 31.4909L100.404 31.4342ZM122.638 28.7909C122.293 29.1359 121.913 29.5059 121.499 29.9017C121.084 30.2976 120.627 30.6684 120.13 31.0126C119.629 31.3589 119.089 31.6451 118.522 31.8651C117.929 32.0919 117.298 32.2055 116.663 32.2001C114.927 32.2001 113.328 31.8751 111.866 31.2234C110.44 30.5978 109.157 29.6888 108.093 28.5517C107.04 27.4217 106.217 26.0909 105.623 24.5584C105.029 23.0267 104.732 21.3801 104.732 19.6176C104.732 17.8426 105.029 16.1926 105.623 14.6676C106.217 13.1426 107.04 11.8142 108.093 10.6842C109.155 9.54817 110.439 8.64225 111.866 8.02255C113.328 7.37755 114.927 7.05505 116.663 7.05505C117.366 7.05505 118.007 7.15755 118.588 7.36172C119.149 7.5559 119.683 7.81962 120.177 8.14672C120.657 8.46589 121.097 8.82672 121.499 9.22838C121.901 9.63089 122.281 10.0234 122.638 10.4067V1.65422C122.638 1.24589 122.763 0.901719 123.012 0.620885C123.261 0.339219 123.634 0.199219 124.132 0.199219H128.441C128.607 0.199219 128.782 0.234219 128.967 0.304219C129.152 0.375052 129.322 0.473385 129.476 0.601719C129.628 0.729219 129.752 0.882552 129.848 1.06089C129.944 1.24005 129.992 1.43755 129.992 1.65422V30.2851C129.992 31.2684 129.476 31.7601 128.441 31.7601H124.687C124.432 31.7601 124.234 31.7267 124.094 31.6634C123.955 31.601 123.833 31.5058 123.739 31.3859C123.632 31.2453 123.546 31.0909 123.481 30.9267C123.391 30.7105 123.295 30.4966 123.194 30.2851L122.638 28.7909ZM111.627 19.6176C111.62 20.4229 111.753 21.2233 112.019 21.9834C112.281 22.7167 112.654 23.3526 113.14 23.8884C113.63 24.4284 114.227 24.8619 114.892 25.1617C115.575 25.4751 116.332 25.6309 117.162 25.6309C117.978 25.6309 118.747 25.4842 119.469 25.1909C120.17 24.9101 120.81 24.4971 121.355 23.9742C121.896 23.4506 122.335 22.8305 122.648 22.1459C122.973 21.4434 123.156 20.6901 123.194 19.8859V19.6176C123.197 18.8162 123.041 18.0222 122.734 17.2817C122.437 16.5558 122.005 15.8929 121.461 15.3284C120.915 14.7645 120.265 14.3124 119.546 13.9976C118.794 13.6684 117.982 13.502 117.162 13.5092C116.332 13.5092 115.575 13.6717 114.892 13.9976C114.208 14.3226 113.625 14.7667 113.14 15.3284C112.647 15.9033 112.267 16.566 112.019 17.2817C111.756 18.0322 111.624 18.8223 111.627 19.6176H111.627ZM152.227 28.7909C151.882 29.1359 151.502 29.5059 151.087 29.9017C150.672 30.2976 150.215 30.6684 149.717 31.0126C149.217 31.3589 148.677 31.6451 148.109 31.8651C147.516 32.0919 146.886 32.2055 146.251 32.2001C144.515 32.2001 142.916 31.8751 141.454 31.2234C140.028 30.5979 138.744 29.6889 137.681 28.5517C136.628 27.4217 135.804 26.0909 135.211 24.5584C134.617 23.0267 134.32 21.3801 134.32 19.6176C134.32 17.8426 134.617 16.1926 135.211 14.6676C135.804 13.1426 136.627 11.8142 137.681 10.6842C138.743 9.54808 140.027 8.64215 141.454 8.02255C142.916 7.37755 144.515 7.05505 146.251 7.05505C146.953 7.05505 147.595 7.15755 148.176 7.36172C148.736 7.5559 149.27 7.81962 149.765 8.14672C150.244 8.46589 150.684 8.82672 151.087 9.22838C151.489 9.63089 151.868 10.0234 152.226 10.4067V1.65422C152.226 1.24589 152.351 0.901719 152.599 0.620885C152.849 0.339219 153.222 0.199219 153.72 0.199219H158.028C158.195 0.199219 158.37 0.234219 158.555 0.304219C158.741 0.375052 158.91 0.473385 159.063 0.601719C159.216 0.729219 159.341 0.882552 159.437 1.06089C159.532 1.24005 159.58 1.43755 159.58 1.65422V30.2851C159.58 31.2684 159.063 31.7601 158.028 31.7601H154.275C154.02 31.7601 153.822 31.7267 153.682 31.6634C153.543 31.6009 153.421 31.5056 153.327 31.3859C153.221 31.2453 153.134 31.0909 153.069 30.9267C152.979 30.7105 152.883 30.4965 152.782 30.2851L152.227 28.7909ZM141.214 19.6176C141.208 20.4229 141.341 21.2233 141.607 21.9834C141.869 22.7167 142.242 23.3526 142.727 23.8884C143.218 24.4285 143.815 24.862 144.48 25.1617C145.163 25.4751 145.919 25.6309 146.749 25.6309C147.566 25.6309 148.335 25.4842 149.057 25.1909C149.758 24.9102 150.398 24.4971 150.943 23.9742C151.484 23.4505 151.922 22.8304 152.235 22.1459C152.561 21.4434 152.743 20.6901 152.782 19.8859V19.6176C152.785 18.8162 152.628 18.0222 152.322 17.2817C152.025 16.5558 151.593 15.8929 151.048 15.3284C150.503 14.7645 149.852 14.3124 149.133 13.9976C148.382 13.6684 147.569 13.502 146.749 13.5092C145.919 13.5092 145.162 13.6717 144.48 13.9976C143.797 14.3226 143.212 14.7667 142.727 15.3284C142.235 15.9033 141.854 16.566 141.607 17.2817C141.344 18.0322 141.21 18.8223 141.214 19.6176ZM164.675 1.67339C164.675 1.26505 164.777 0.920885 164.981 0.640052C165.186 0.358385 165.537 0.218385 166.034 0.218385H170.726C170.854 0.218385 170.988 0.253385 171.128 0.323385C171.276 0.398875 171.408 0.499563 171.521 0.620885C171.642 0.748385 171.744 0.901719 171.827 1.08005C171.911 1.25922 171.952 1.45672 171.952 1.67339V30.2851C171.952 30.7701 171.815 31.1367 171.54 31.3859C171.266 31.6351 170.912 31.7592 170.477 31.7592H166.034C165.537 31.7592 165.186 31.6342 164.981 31.3859C164.777 31.1367 164.675 30.7692 164.675 30.2851V1.67339ZM196.925 28.8484C195.815 29.8741 194.531 30.6944 193.133 31.2709C191.718 31.854 190.201 32.1503 188.671 32.1426C186.921 32.1426 185.268 31.8234 183.711 31.1842C182.189 30.569 180.798 29.669 179.612 28.5326C178.432 27.394 177.483 26.038 176.817 24.5392C176.127 23.0076 175.782 21.3417 175.782 19.5409C175.782 18.4176 175.919 17.3292 176.194 16.2759C176.46 15.2453 176.852 14.2516 177.362 13.3176C177.867 12.3982 178.484 11.5457 179.201 10.7801C179.915 10.0131 180.73 9.3462 181.623 8.79755C182.532 8.24185 183.511 7.81024 184.534 7.51422C185.611 7.20383 186.726 7.04921 187.847 7.05505C188.907 7.05505 189.934 7.19589 190.93 7.47672C191.926 7.75755 192.862 8.15338 193.736 8.66338C194.611 9.17422 195.411 9.78755 196.139 10.5026C196.857 11.2056 197.488 11.9934 198.016 12.8484C198.539 13.6972 198.949 14.6115 199.232 15.5676C199.519 16.5317 199.663 17.5242 199.663 18.5451C199.663 19.2092 199.653 19.7517 199.634 20.1734C199.615 20.5942 199.516 20.9301 199.337 21.1784C199.158 21.4284 198.862 21.6001 198.447 21.6951C198.032 21.7917 197.422 21.8392 196.618 21.8392H182.83C182.957 22.6559 183.216 23.3392 183.605 23.8892C183.965 24.4098 184.424 24.8551 184.955 25.2001C185.466 25.5259 186.008 25.7584 186.583 25.9001C187.115 26.0349 187.662 26.1054 188.211 26.1101C188.671 26.1101 189.142 26.0617 189.627 25.9667C190.106 25.8729 190.576 25.7448 191.036 25.5834C191.466 25.434 191.882 25.248 192.28 25.0276C192.657 24.8176 192.96 24.5967 193.19 24.3675C193.394 24.2009 193.57 24.0767 193.717 23.9934C193.863 23.9101 194.02 23.8692 194.186 23.8692C194.352 23.8692 194.521 23.9276 194.694 24.0417C194.904 24.1885 195.099 24.3551 195.277 24.5392L197.307 26.8376C197.447 27.0042 197.537 27.1542 197.576 27.2876C197.614 27.4217 197.633 27.5592 197.633 27.6992C197.633 27.9551 197.562 28.1751 197.422 28.3601C197.281 28.5462 197.114 28.7107 196.925 28.8484ZM187.713 12.8959C187.215 12.8959 186.733 12.9951 186.267 13.1926C185.795 13.3944 185.353 13.662 184.955 13.9876C184.547 14.3192 184.18 14.6959 183.854 15.1176C183.543 15.5151 183.277 15.9454 183.059 16.4009H192.845C192.588 15.9207 192.297 15.4598 191.974 15.0217C191.667 14.6061 191.306 14.2326 190.902 13.9109C190.488 13.5854 190.021 13.3329 189.522 13.1642C189.006 12.9851 188.402 12.8959 187.713 12.8959Z" fill="white"/>
</svg>
